<?xml version="1.0" standalone="no"?>
<!DOCTYPE svg PUBLIC "-//W3C//DTD SVG 20010904//EN"
 "http://www.w3.org/TR/2001/REC-SVG-20010904/DTD/svg10.dtd">
<svg version="1.0" xmlns="http://www.w3.org/2000/svg"
 width="192.000000pt" height="192.000000pt" viewBox="0 0 192.000000 192.000000"
 preserveAspectRatio="xMidYMid meet">
<metadata>
Created by potrace 1.11, written by Peter Selinger 2001-2013
</metadata>
<g transform="translate(0.000000,192.000000) scale(0.100000,-0.100000)"
fill="#000000" stroke="none">
<path d="M992 1774 c-15 -11 -22 -25 -22 -50 0 -31 3 -34 28 -34 35 0 72 26
72 50 0 16 -34 50 -50 50 -3 0 -16 -7 -28 -16z"/>
<path d="M870 1648 c-71 -82 -77 -86 -122 -93 -53 -8 -108 -38 -108 -59 0 -29
97 -88 165 -100 53 -10 112 -42 118 -63 11 -37 18 -151 12 -176 -10 -37 -45
-46 -65 -18 -46 67 -73 91 -108 96 -20 4 -46 8 -57 10 -35 7 -153 152 -177
218 -24 66 -51 90 -99 85 -26 -2 -39 -12 -62 -45 -15 -23 -45 -52 -66 -64 -49
-27 -61 -54 -61 -131 0 -65 2 -61 -84 -131 l-29 -24 2 -214 c1 -118 6 -230 11
-249 5 -20 26 -51 45 -70 20 -19 46 -52 58 -73 11 -20 39 -48 61 -61 23 -13
50 -41 60 -61 11 -21 38 -47 62 -61 24 -14 52 -40 63 -59 11 -19 38 -45 60
-59 21 -14 42 -34 45 -44 4 -10 18 -30 32 -43 23 -21 35 -24 112 -25 48 0 125
-4 172 -9 59 -5 102 -4 140 5 30 7 90 16 133 20 l78 7 52 57 53 56 62 0 c83 0
102 18 102 98 0 63 13 84 75 115 48 24 62 48 68 113 8 82 12 88 68 129 54 39
59 57 37 139 -10 38 -9 51 11 104 15 38 21 71 17 89 -3 15 -10 67 -15 115 l-8
87 -81 80 c-68 68 -91 85 -147 105 -46 17 -77 36 -103 64 -47 50 -86 59 -190
41 -108 -19 -200 -16 -248 7 -31 15 -42 28 -54 64 -13 37 -21 46 -42 48 -19 2
-34 -4 -48 -20z"/>
</g>
</svg>
